key_frame=1
pkt_pts_time=0.000000
--
pkt_pts_time=0.483817
key_frame=1
pkt_pts_time=0.500500
--
pkt_pts_time=0.984317
key_frame=1
pkt_pts_time=1.001000
--
pkt_pts_time=1.484817
key_frame=1
pkt_pts_time=1.501500
--
pkt_pts_time=1.985317
key_frame=1
pkt_pts_time=2.002000
--
pkt_pts_time=2.485817
key_frame=1
pkt_pts_time=2.502500
--
pkt_pts_time=2.986317
key_frame=1
pkt_pts_time=3.003000
--
pkt_pts_time=3.486817
key_frame=1
pkt_pts_time=3.503500
--
pkt_pts_time=3.987317
key_frame=1
pkt_pts_time=4.004000
--
pkt_pts_time=4.487817
key_frame=1
pkt_pts_time=4.504500
--
pkt_pts_time=4.988317
key_frame=1
pkt_pts_time=5.005000
--
pkt_pts_time=5.488817
key_frame=1
pkt_pts_time=5.505500
--
pkt_pts_time=5.989317
key_frame=1
pkt_pts_time=6.006000
--
pkt_pts_time=6.489817
key_frame=1
pkt_pts_time=6.506500
--
pkt_pts_time=6.990317
key_frame=1
pkt_pts_time=7.007000
--
pkt_pts_time=7.490817
key_frame=1
pkt_pts_time=7.507500
--
pkt_pts_time=7.991317
key_frame=1
pkt_pts_time=8.008000
--
pkt_pts_time=8.491817
key_frame=1
pkt_pts_time=8.508500
--
pkt_pts_time=8.992317
key_frame=1
pkt_pts_time=9.009000
--
pkt_pts_time=9.492817
key_frame=1
pkt_pts_time=9.509500
--
pkt_pts_time=9.993317
key_frame=1
pkt_pts_time=10.010000
--
pkt_pts_time=10.493817
key_frame=1
pkt_pts_time=10.510500
--
pkt_pts_time=10.994317
key_frame=1
pkt_pts_time=11.011000
--
pkt_pts_time=11.494817
key_frame=1
pkt_pts_time=11.511500
--
pkt_pts_time=11.995317
key_frame=1
pkt_pts_time=12.012000
--
pkt_pts_time=12.495817
key_frame=1
pkt_pts_time=12.512500
--
pkt_pts_time=12.996317
key_frame=1
pkt_pts_time=13.013000
--
pkt_pts_time=13.496817
key_frame=1
pkt_pts_time=13.513500
--
pkt_pts_time=13.997317
key_frame=1
pkt_pts_time=14.014000
--
pkt_pts_time=14.497817
key_frame=1
pkt_pts_time=14.514500
--
pkt_pts_time=14.998317
key_frame=1
pkt_pts_time=15.015000
--
pkt_pts_time=15.498817
key_frame=1
pkt_pts_time=15.515500
--
pkt_pts_time=15.999317
key_frame=1
pkt_pts_time=16.016000
--
pkt_pts_time=16.499817
key_frame=1
pkt_pts_time=16.516500
--
pkt_pts_time=17.000317
key_frame=1
pkt_pts_time=17.017000
--
pkt_pts_time=17.500817
key_frame=1
pkt_pts_time=17.517500
--
pkt_pts_time=18.001317
key_frame=1
pkt_pts_time=18.018000
--
pkt_pts_time=18.501817
key_frame=1
pkt_pts_time=18.518500
--
pkt_pts_time=19.002317
key_frame=1
pkt_pts_time=19.019000
--
pkt_pts_time=19.502817
key_frame=1
pkt_pts_time=19.519500
--
pkt_pts_time=20.003317
key_frame=1
pkt_pts_time=20.020000
--
pkt_pts_time=20.503817
key_frame=1
pkt_pts_time=20.520500
--
pkt_pts_time=21.004317
key_frame=1
pkt_pts_time=21.021000
--
pkt_pts_time=21.504817
key_frame=1
pkt_pts_time=21.521500
--
pkt_pts_time=22.005317
key_frame=1
pkt_pts_time=22.022000
--
pkt_pts_time=22.505817
key_frame=1
pkt_pts_time=22.522500
--
pkt_pts_time=23.006317
key_frame=1
pkt_pts_time=23.023000
--
pkt_pts_time=23.506817
key_frame=1
pkt_pts_time=23.523500
--
pkt_pts_time=24.007317
key_frame=1
pkt_pts_time=24.024000
--
pkt_pts_time=24.507817
key_frame=1
pkt_pts_time=24.524500
--
pkt_pts_time=25.008317
key_frame=1
pkt_pts_time=25.025000
--
pkt_pts_time=25.508817
key_frame=1
pkt_pts_time=25.525500
--
pkt_pts_time=26.009317
key_frame=1
pkt_pts_time=26.026000
--
pkt_pts_time=26.509817
key_frame=1
pkt_pts_time=26.526500
--
pkt_pts_time=27.010317
key_frame=1
pkt_pts_time=27.027000
--
pkt_pts_time=27.510817
key_frame=1
pkt_pts_time=27.527500
--
pkt_pts_time=28.011317
key_frame=1
pkt_pts_time=28.028000
--
pkt_pts_time=28.511817
key_frame=1
pkt_pts_time=28.528500
--
pkt_pts_time=29.012317
key_frame=1
pkt_pts_time=29.029000
--
pkt_pts_time=29.512817
key_frame=1
pkt_pts_time=29.529500
--
pkt_pts_time=30.013317
key_frame=1
pkt_pts_time=30.030000
--
pkt_pts_time=30.513817
key_frame=1
pkt_pts_time=30.530500
--
pkt_pts_time=31.014317
key_frame=1
pkt_pts_time=31.031000
--
pkt_pts_time=31.514817
key_frame=1
pkt_pts_time=31.531500
--
pkt_pts_time=32.015317
key_frame=1
pkt_pts_time=32.032000
--
pkt_pts_time=32.515817
key_frame=1
pkt_pts_time=32.532500
--
pkt_pts_time=33.016317
key_frame=1
pkt_pts_time=33.033000
--
pkt_pts_time=33.516817
key_frame=1
pkt_pts_time=33.533500
--
pkt_pts_time=34.017317
key_frame=1
pkt_pts_time=34.034000
--
pkt_pts_time=34.517817
key_frame=1
pkt_pts_time=34.534500
--
pkt_pts_time=35.018317
key_frame=1
pkt_pts_time=35.035000
--
pkt_pts_time=35.518817
key_frame=1
pkt_pts_time=35.535500
--
pkt_pts_time=36.019317
key_frame=1
pkt_pts_time=36.036000
--
pkt_pts_time=36.519817
key_frame=1
pkt_pts_time=36.536500
--
pkt_pts_time=37.020317
key_frame=1
pkt_pts_time=37.037000
--
pkt_pts_time=37.520817
key_frame=1
pkt_pts_time=37.537500
--
pkt_pts_time=38.021317
key_frame=1
pkt_pts_time=38.038000
--
pkt_pts_time=38.521817
key_frame=1
pkt_pts_time=38.538500
--
pkt_pts_time=39.022317
key_frame=1
pkt_pts_time=39.039000
--
pkt_pts_time=39.522817
key_frame=1
pkt_pts_time=39.539500
--
pkt_pts_time=40.023317
key_frame=1
pkt_pts_time=40.040000
--
pkt_pts_time=40.523817
key_frame=1
pkt_pts_time=40.540500
--
pkt_pts_time=41.024317
key_frame=1
pkt_pts_time=41.041000
--
pkt_pts_time=41.524817
key_frame=1
pkt_pts_time=41.541500
--
pkt_pts_time=42.025317
key_frame=1
pkt_pts_time=42.042000
--
pkt_pts_time=42.525817
key_frame=1
pkt_pts_time=42.542500
--
pkt_pts_time=43.026317
key_frame=1
pkt_pts_time=43.043000
--
pkt_pts_time=43.526817
key_frame=1
pkt_pts_time=43.543500
--
pkt_pts_time=44.027317
key_frame=1
pkt_pts_time=44.044000
--
pkt_pts_time=44.527817
key_frame=1
pkt_pts_time=44.544500
--
pkt_pts_time=45.028317
key_frame=1
pkt_pts_time=45.045000
--
pkt_pts_time=45.528817
key_frame=1
pkt_pts_time=45.545500
--
pkt_pts_time=46.029317
key_frame=1
pkt_pts_time=46.046000
--
pkt_pts_time=46.529817
key_frame=1
pkt_pts_time=46.546500
--
pkt_pts_time=47.030317
key_frame=1
pkt_pts_time=47.047000
--
pkt_pts_time=47.530817
key_frame=1
pkt_pts_time=47.547500
--
pkt_pts_time=48.031317
key_frame=1
pkt_pts_time=48.048000
--
pkt_pts_time=48.531817
key_frame=1
pkt_pts_time=48.548500
--
pkt_pts_time=49.032317
key_frame=1
pkt_pts_time=49.049000
--
pkt_pts_time=49.532817
key_frame=1
pkt_pts_time=49.549500
--
pkt_pts_time=50.033317
key_frame=1
pkt_pts_time=50.050000
--
pkt_pts_time=50.533817
key_frame=1
pkt_pts_time=50.550500
--
pkt_pts_time=51.034317
key_frame=1
pkt_pts_time=51.051000
--
pkt_pts_time=51.534817
key_frame=1
pkt_pts_time=51.551500
--
pkt_pts_time=52.035317
key_frame=1
pkt_pts_time=52.052000
--
pkt_pts_time=52.535817
key_frame=1
pkt_pts_time=52.552500
--
pkt_pts_time=53.036317
key_frame=1
pkt_pts_time=53.053000
--
pkt_pts_time=53.536817
key_frame=1
pkt_pts_time=53.553500
--
pkt_pts_time=54.037317
key_frame=1
pkt_pts_time=54.054000
--
pkt_pts_time=54.537817
key_frame=1
pkt_pts_time=54.554500
--
pkt_pts_time=55.038317
key_frame=1
pkt_pts_time=55.055000
--
pkt_pts_time=55.538817
key_frame=1
pkt_pts_time=55.555500
--
pkt_pts_time=56.039317
key_frame=1
pkt_pts_time=56.056000
--
pkt_pts_time=56.539817
key_frame=1
pkt_pts_time=56.556500
--
pkt_pts_time=57.040317
key_frame=1
pkt_pts_time=57.057000
--
pkt_pts_time=57.540817
key_frame=1
pkt_pts_time=57.557500
--
pkt_pts_time=58.041317
key_frame=1
pkt_pts_time=58.058000
--
pkt_pts_time=58.541817
key_frame=1
pkt_pts_time=58.558500
--
pkt_pts_time=59.042317
key_frame=1
pkt_pts_time=59.059000
--
pkt_pts_time=59.542817
key_frame=1
pkt_pts_time=59.559500
--
pkt_pts_time=60.043317
key_frame=1
pkt_pts_time=60.060000
--
pkt_pts_time=60.543817
key_frame=1
pkt_pts_time=60.560500
--
pkt_pts_time=61.044317
key_frame=1
pkt_pts_time=61.061000
--
pkt_pts_time=61.544817
key_frame=1
pkt_pts_time=61.561500
--
pkt_pts_time=62.045317
key_frame=1
pkt_pts_time=62.062000
--
pkt_pts_time=62.545817
key_frame=1
pkt_pts_time=62.562500
--
pkt_pts_time=63.046317
key_frame=1
pkt_pts_time=63.063000
--
pkt_pts_time=63.546817
key_frame=1
pkt_pts_time=63.563500
--
pkt_pts_time=64.047317
key_frame=1
pkt_pts_time=64.064000
--
pkt_pts_time=64.547817
key_frame=1
pkt_pts_time=64.564500
--
pkt_pts_time=65.048317
key_frame=1
pkt_pts_time=65.065000
--
pkt_pts_time=65.548817
key_frame=1
pkt_pts_time=65.565500
--
pkt_pts_time=66.049317
key_frame=1
pkt_pts_time=66.066000
--
pkt_pts_time=66.549817
key_frame=1
pkt_pts_time=66.566500
--
pkt_pts_time=67.050317
key_frame=1
pkt_pts_time=67.067000
--
pkt_pts_time=67.550817
key_frame=1
pkt_pts_time=67.567500
--
pkt_pts_time=68.051317
key_frame=1
pkt_pts_time=68.068000
--
pkt_pts_time=68.551817
key_frame=1
pkt_pts_time=68.568500
--
pkt_pts_time=69.052317
key_frame=1
pkt_pts_time=69.069000
--
pkt_pts_time=69.552817
key_frame=1
pkt_pts_time=69.569500
--
pkt_pts_time=70.053317
key_frame=1
pkt_pts_time=70.070000
--
pkt_pts_time=70.553817
key_frame=1
pkt_pts_time=70.570500
--
pkt_pts_time=71.054317
key_frame=1
pkt_pts_time=71.071000
--
pkt_pts_time=71.554817
key_frame=1
pkt_pts_time=71.571500
--
pkt_pts_time=72.055317
key_frame=1
pkt_pts_time=72.072000
--
pkt_pts_time=72.555817
key_frame=1
pkt_pts_time=72.572500
--
pkt_pts_time=73.056317
key_frame=1
pkt_pts_time=73.073000
--
pkt_pts_time=73.556817
key_frame=1
pkt_pts_time=73.573500
--
pkt_pts_time=74.057317
key_frame=1
pkt_pts_time=74.074000
--
pkt_pts_time=74.557817
key_frame=1
pkt_pts_time=74.574500
--
pkt_pts_time=75.058317
key_frame=1
pkt_pts_time=75.075000
--
pkt_pts_time=75.558817
key_frame=1
pkt_pts_time=75.575500
--
pkt_pts_time=76.059317
key_frame=1
pkt_pts_time=76.076000
--
pkt_pts_time=76.559817
key_frame=1
pkt_pts_time=76.576500
--
pkt_pts_time=77.060317
key_frame=1
pkt_pts_time=77.077000
--
pkt_pts_time=77.560817
key_frame=1
pkt_pts_time=77.577500
--
pkt_pts_time=78.061317
key_frame=1
pkt_pts_time=78.078000
--
pkt_pts_time=78.561817
key_frame=1
pkt_pts_time=78.578500
--
pkt_pts_time=79.062317
key_frame=1
pkt_pts_time=79.079000
--
pkt_pts_time=79.562817
key_frame=1
pkt_pts_time=79.579500
--
pkt_pts_time=80.063317
key_frame=1
pkt_pts_time=80.080000
--
pkt_pts_time=80.563817
key_frame=1
pkt_pts_time=80.580500
--
pkt_pts_time=81.064317
key_frame=1
pkt_pts_time=81.081000
--
pkt_pts_time=81.564817
key_frame=1
pkt_pts_time=81.581500
--
pkt_pts_time=82.065317
key_frame=1
pkt_pts_time=82.082000
--
pkt_pts_time=82.565817
key_frame=1
pkt_pts_time=82.582500
--
pkt_pts_time=83.066317
key_frame=1
pkt_pts_time=83.083000
--
pkt_pts_time=83.566817
key_frame=1
pkt_pts_time=83.583500
--
pkt_pts_time=84.067317
key_frame=1
pkt_pts_time=84.084000
--
pkt_pts_time=84.567817
key_frame=1
pkt_pts_time=84.584500
--
pkt_pts_time=85.068317
key_frame=1
pkt_pts_time=85.085000
--
pkt_pts_time=85.568817
key_frame=1
pkt_pts_time=85.585500
--
pkt_pts_time=86.069317
key_frame=1
pkt_pts_time=86.086000
--
pkt_pts_time=86.569817
key_frame=1
pkt_pts_time=86.586500
--
pkt_pts_time=87.070317
key_frame=1
pkt_pts_time=87.087000
--
pkt_pts_time=87.570817
key_frame=1
pkt_pts_time=87.587500
--
pkt_pts_time=88.071317
key_frame=1
pkt_pts_time=88.088000
--
pkt_pts_time=88.571817
key_frame=1
pkt_pts_time=88.588500
--
pkt_pts_time=89.072317
key_frame=1
pkt_pts_time=89.089000
--
pkt_pts_time=89.572817
key_frame=1
pkt_pts_time=89.589500
--
pkt_pts_time=90.073317
key_frame=1
pkt_pts_time=90.090000
--
pkt_pts_time=90.573817
key_frame=1
pkt_pts_time=90.590500
--
pkt_pts_time=91.074317
key_frame=1
pkt_pts_time=91.091000
--
pkt_pts_time=91.574817
key_frame=1
pkt_pts_time=91.591500
--
pkt_pts_time=92.075317
key_frame=1
pkt_pts_time=92.092000
--
pkt_pts_time=92.575817
key_frame=1
pkt_pts_time=92.592500
--
pkt_pts_time=93.076317
key_frame=1
pkt_pts_time=93.093000
--
pkt_pts_time=93.576817
key_frame=1
pkt_pts_time=93.593500
--
pkt_pts_time=94.077317
key_frame=1
pkt_pts_time=94.094000
--
pkt_pts_time=94.577817
key_frame=1
pkt_pts_time=94.594500
--
pkt_pts_time=95.078317
key_frame=1
pkt_pts_time=95.095000
--
pkt_pts_time=95.578817
key_frame=1
pkt_pts_time=95.595500
--
pkt_pts_time=96.079317
key_frame=1
pkt_pts_time=96.096000
--
pkt_pts_time=96.579817
key_frame=1
pkt_pts_time=96.596500
--
pkt_pts_time=97.080317
key_frame=1
pkt_pts_time=97.097000
--
pkt_pts_time=97.580817
key_frame=1
pkt_pts_time=97.597500
--
pkt_pts_time=98.081317
key_frame=1
pkt_pts_time=98.098000
--
pkt_pts_time=98.581817
key_frame=1
pkt_pts_time=98.598500
--
pkt_pts_time=99.082317
key_frame=1
pkt_pts_time=99.099000
--
pkt_pts_time=99.582817
key_frame=1
pkt_pts_time=99.599500
--
pkt_pts_time=100.083317
key_frame=1
pkt_pts_time=100.100000
--
pkt_pts_time=100.583817
key_frame=1
pkt_pts_time=100.600500
--
pkt_pts_time=101.084317
key_frame=1
pkt_pts_time=101.101000
--
pkt_pts_time=101.584817
key_frame=1
pkt_pts_time=101.601500
--
pkt_pts_time=102.085317
key_frame=1
pkt_pts_time=102.102000
--
pkt_pts_time=102.585817
key_frame=1
pkt_pts_time=102.602500
--
pkt_pts_time=103.086317
key_frame=1
pkt_pts_time=103.103000
--
pkt_pts_time=103.586817
key_frame=1
pkt_pts_time=103.603500
--
pkt_pts_time=104.087317
key_frame=1
pkt_pts_time=104.104000
--
pkt_pts_time=104.587817
key_frame=1
pkt_pts_time=104.604500
--
pkt_pts_time=105.088317
key_frame=1
pkt_pts_time=105.105000
--
pkt_pts_time=105.588817
key_frame=1
pkt_pts_time=105.605500
--
pkt_pts_time=106.089317
key_frame=1
pkt_pts_time=106.106000
--
pkt_pts_time=106.589817
key_frame=1
pkt_pts_time=106.606500
--
pkt_pts_time=107.090317
key_frame=1
pkt_pts_time=107.107000
--
pkt_pts_time=107.590817
key_frame=1
pkt_pts_time=107.607500
--
pkt_pts_time=108.091317
key_frame=1
pkt_pts_time=108.108000
--
pkt_pts_time=108.591817
key_frame=1
pkt_pts_time=108.608500
--
pkt_pts_time=109.092317
key_frame=1
pkt_pts_time=109.109000
--
pkt_pts_time=109.592817
key_frame=1
pkt_pts_time=109.609500
--
pkt_pts_time=110.093317
key_frame=1
pkt_pts_time=110.110000
--
pkt_pts_time=110.593817
key_frame=1
pkt_pts_time=110.610500
--
pkt_pts_time=111.094317
key_frame=1
pkt_pts_time=111.111000
--
pkt_pts_time=111.594817
key_frame=1
pkt_pts_time=111.611500
--
pkt_pts_time=112.095317
key_frame=1
pkt_pts_time=112.112000
--
pkt_pts_time=112.595817
key_frame=1
pkt_pts_time=112.612500
--
pkt_pts_time=113.096317
key_frame=1
pkt_pts_time=113.113000
--
pkt_pts_time=113.596817
key_frame=1
pkt_pts_time=113.613500
--
pkt_pts_time=114.097317
key_frame=1
pkt_pts_time=114.114000
--
pkt_pts_time=114.597817
key_frame=1
pkt_pts_time=114.614500
--
pkt_pts_time=115.098317
key_frame=1
pkt_pts_time=115.115000
--
pkt_pts_time=115.598817
key_frame=1
pkt_pts_time=115.615500
--
pkt_pts_time=116.099317
key_frame=1
pkt_pts_time=116.116000
--
pkt_pts_time=116.599817
key_frame=1
pkt_pts_time=116.616500
--
pkt_pts_time=117.100317
key_frame=1
pkt_pts_time=117.117000
--
pkt_pts_time=117.600817
key_frame=1
pkt_pts_time=117.617500
--
pkt_pts_time=118.101317
key_frame=1
pkt_pts_time=118.118000
--
pkt_pts_time=118.601817
key_frame=1
pkt_pts_time=118.618500
--
pkt_pts_time=119.102317
key_frame=1
pkt_pts_time=119.119000
--
pkt_pts_time=119.602817
key_frame=1
pkt_pts_time=119.619500
--
pkt_pts_time=120.103317
key_frame=1
pkt_pts_time=120.120000
--
pkt_pts_time=120.603817
key_frame=1
pkt_pts_time=120.620500
--
pkt_pts_time=121.104317
key_frame=1
pkt_pts_time=121.121000
--
pkt_pts_time=121.604817
key_frame=1
pkt_pts_time=121.621500
--
pkt_pts_time=122.105317
key_frame=1
pkt_pts_time=122.122000
--
pkt_pts_time=122.605817
key_frame=1
pkt_pts_time=122.622500
--
pkt_pts_time=123.106317
key_frame=1
pkt_pts_time=123.123000
--
pkt_pts_time=123.606817
key_frame=1
pkt_pts_time=123.623500
--
pkt_pts_time=124.107317
key_frame=1
pkt_pts_time=124.124000
--
pkt_pts_time=124.607817
key_frame=1
pkt_pts_time=124.624500
--
pkt_pts_time=125.108317
key_frame=1
pkt_pts_time=125.125000
--
pkt_pts_time=125.608817
key_frame=1
pkt_pts_time=125.625500
--
pkt_pts_time=126.109317
key_frame=1
pkt_pts_time=126.126000
--
pkt_pts_time=126.609817
key_frame=1
pkt_pts_time=126.626500
--
pkt_pts_time=127.110317
key_frame=1
pkt_pts_time=127.127000
--
pkt_pts_time=127.610817
key_frame=1
pkt_pts_time=127.627500
--
pkt_pts_time=128.111317
key_frame=1
pkt_pts_time=128.128000
--
pkt_pts_time=128.611817
key_frame=1
pkt_pts_time=128.628500
--
pkt_pts_time=129.112317
key_frame=1
pkt_pts_time=129.129000
--
pkt_pts_time=129.612817
key_frame=1
pkt_pts_time=129.629500
--
pkt_pts_time=130.113317
key_frame=1
pkt_pts_time=130.130000
--
pkt_pts_time=130.613817
key_frame=1
pkt_pts_time=130.630500
--
pkt_pts_time=131.114317
key_frame=1
pkt_pts_time=131.131000
--
pkt_pts_time=131.614817
key_frame=1
pkt_pts_time=131.631500
--
pkt_pts_time=132.115317
key_frame=1
pkt_pts_time=132.132000
--
pkt_pts_time=132.615817
key_frame=1
pkt_pts_time=132.632500
--
pkt_pts_time=133.116317
key_frame=1
pkt_pts_time=133.133000
--
pkt_pts_time=133.616817
key_frame=1
pkt_pts_time=133.633500
--
pkt_pts_time=134.117317
key_frame=1
pkt_pts_time=134.134000
--
pkt_pts_time=134.617817
key_frame=1
pkt_pts_time=134.634500
--
pkt_pts_time=135.118317
key_frame=1
pkt_pts_time=135.135000
--
pkt_pts_time=135.618817
key_frame=1
pkt_pts_time=135.635500
--
pkt_pts_time=136.119317
key_frame=1
pkt_pts_time=136.136000
--
pkt_pts_time=136.619817
key_frame=1
pkt_pts_time=136.636500
--
pkt_pts_time=137.120317
key_frame=1
pkt_pts_time=137.137000
--
pkt_pts_time=137.620817
key_frame=1
pkt_pts_time=137.637500
--
pkt_pts_time=138.121317
key_frame=1
pkt_pts_time=138.138000
--
pkt_pts_time=138.621817
key_frame=1
pkt_pts_time=138.638500
--
pkt_pts_time=139.122317
key_frame=1
pkt_pts_time=139.139000
--
pkt_pts_time=139.622817
key_frame=1
pkt_pts_time=139.639500
--
pkt_pts_time=140.123317
key_frame=1
pkt_pts_time=140.140000
--
pkt_pts_time=140.623817
key_frame=1
pkt_pts_time=140.640500
--
pkt_pts_time=141.124317
key_frame=1
pkt_pts_time=141.141000
--
pkt_pts_time=141.624817
key_frame=1
pkt_pts_time=141.641500
--
pkt_pts_time=142.125317
key_frame=1
pkt_pts_time=142.142000
--
pkt_pts_time=142.625817
key_frame=1
pkt_pts_time=142.642500
--
pkt_pts_time=143.126317
key_frame=1
pkt_pts_time=143.143000
--
pkt_pts_time=143.626817
key_frame=1
pkt_pts_time=143.643500
--
pkt_pts_time=144.127317
key_frame=1
pkt_pts_time=144.144000
--
pkt_pts_time=144.627817
key_frame=1
pkt_pts_time=144.644500
--
pkt_pts_time=145.128317
key_frame=1
pkt_pts_time=145.145000
--
pkt_pts_time=145.628817
key_frame=1
pkt_pts_time=145.645500
--
pkt_pts_time=146.129317
key_frame=1
pkt_pts_time=146.146000
--
pkt_pts_time=146.629817
key_frame=1
pkt_pts_time=146.646500
--
pkt_pts_time=147.130317
key_frame=1
pkt_pts_time=147.147000
--
pkt_pts_time=147.630817
key_frame=1
pkt_pts_time=147.647500
--
pkt_pts_time=148.131317
key_frame=1
pkt_pts_time=148.148000
--
pkt_pts_time=148.631817
key_frame=1
pkt_pts_time=148.648500
--
pkt_pts_time=149.132317
key_frame=1
pkt_pts_time=149.149000
--
pkt_pts_time=149.632817
key_frame=1
pkt_pts_time=149.649500
--
pkt_pts_time=150.133317
key_frame=1
pkt_pts_time=150.150000
--
pkt_pts_time=150.633817
key_frame=1
pkt_pts_time=150.650500
--
pkt_pts_time=151.134317
key_frame=1
pkt_pts_time=151.151000
--
pkt_pts_time=151.634817
key_frame=1
pkt_pts_time=151.651500
--
pkt_pts_time=152.135317
key_frame=1
pkt_pts_time=152.152000
--
pkt_pts_time=152.635817
key_frame=1
pkt_pts_time=152.652500
--
pkt_pts_time=153.136317
key_frame=1
pkt_pts_time=153.153000
--
pkt_pts_time=153.636817
key_frame=1
pkt_pts_time=153.653500
--
pkt_pts_time=154.137317
key_frame=1
pkt_pts_time=154.154000
--
pkt_pts_time=154.637817
key_frame=1
pkt_pts_time=154.654500
--
pkt_pts_time=155.138317
key_frame=1
pkt_pts_time=155.155000
--
pkt_pts_time=155.638817
key_frame=1
pkt_pts_time=155.655500
--
pkt_pts_time=156.139317
key_frame=1
pkt_pts_time=156.156000
--
pkt_pts_time=156.639817
key_frame=1
pkt_pts_time=156.656500
--
pkt_pts_time=157.140317
key_frame=1
pkt_pts_time=157.157000
--
pkt_pts_time=157.640817
key_frame=1
pkt_pts_time=157.657500
--
pkt_pts_time=158.141317
key_frame=1
pkt_pts_time=158.158000
--
pkt_pts_time=158.641817
key_frame=1
pkt_pts_time=158.658500
--
pkt_pts_time=159.142317
key_frame=1
pkt_pts_time=159.159000
--
pkt_pts_time=159.642817
key_frame=1
pkt_pts_time=159.659500
--
pkt_pts_time=160.143317
key_frame=1
pkt_pts_time=160.160000
--
pkt_pts_time=160.643817
key_frame=1
pkt_pts_time=160.660500
--
pkt_pts_time=161.144317
key_frame=1
pkt_pts_time=161.161000
--
pkt_pts_time=161.644817
key_frame=1
pkt_pts_time=161.661500
--
pkt_pts_time=162.145317
key_frame=1
pkt_pts_time=162.162000
--
pkt_pts_time=162.645817
key_frame=1
pkt_pts_time=162.662500
--
pkt_pts_time=163.146317
key_frame=1
pkt_pts_time=163.163000
--
pkt_pts_time=163.646817
key_frame=1
pkt_pts_time=163.663500
--
pkt_pts_time=164.147317
key_frame=1
pkt_pts_time=164.164000
--
pkt_pts_time=164.647817
key_frame=1
pkt_pts_time=164.664500
--
pkt_pts_time=165.148317
key_frame=1
pkt_pts_time=165.165000
--
pkt_pts_time=165.648817
key_frame=1
pkt_pts_time=165.665500
--
pkt_pts_time=166.149317
key_frame=1
pkt_pts_time=166.166000
--
pkt_pts_time=166.649817
key_frame=1
pkt_pts_time=166.666500
--
pkt_pts_time=167.150317
key_frame=1
pkt_pts_time=167.167000
--
pkt_pts_time=167.650817
key_frame=1
pkt_pts_time=167.667500
--
pkt_pts_time=168.151317
key_frame=1
pkt_pts_time=168.168000
--
pkt_pts_time=168.651817
key_frame=1
pkt_pts_time=168.668500
--
pkt_pts_time=169.152317
key_frame=1
pkt_pts_time=169.169000
--
pkt_pts_time=169.652817
key_frame=1
pkt_pts_time=169.669500
--
pkt_pts_time=170.153317
key_frame=1
pkt_pts_time=170.170000
--
pkt_pts_time=170.653817
key_frame=1
pkt_pts_time=170.670500
--
pkt_pts_time=171.154317
key_frame=1
pkt_pts_time=171.171000
--
pkt_pts_time=171.654817
key_frame=1
pkt_pts_time=171.671500
--
pkt_pts_time=172.155317
key_frame=1
pkt_pts_time=172.172000
--
pkt_pts_time=172.655817
key_frame=1
pkt_pts_time=172.672500
--
pkt_pts_time=173.156317
key_frame=1
pkt_pts_time=173.173000
--
pkt_pts_time=173.656817
key_frame=1
pkt_pts_time=173.673500
--
pkt_pts_time=174.157317
key_frame=1
pkt_pts_time=174.174000
--
pkt_pts_time=174.657817
key_frame=1
pkt_pts_time=174.674500
--
pkt_pts_time=175.158317
key_frame=1
pkt_pts_time=175.175000
--
pkt_pts_time=175.658817
key_frame=1
pkt_pts_time=175.675500
--
pkt_pts_time=176.159317
key_frame=1
pkt_pts_time=176.176000
--
pkt_pts_time=176.659817
key_frame=1
pkt_pts_time=176.676500
--
pkt_pts_time=177.160317
key_frame=1
pkt_pts_time=177.177000
--
pkt_pts_time=177.660817
key_frame=1
pkt_pts_time=177.677500
--
pkt_pts_time=178.161317
key_frame=1
pkt_pts_time=178.178000
--
pkt_pts_time=178.661817
key_frame=1
pkt_pts_time=178.678500
--
pkt_pts_time=179.162317
key_frame=1
pkt_pts_time=179.179000
--
pkt_pts_time=179.662817
key_frame=1
pkt_pts_time=179.679500
--
pkt_pts_time=180.163317
key_frame=1
pkt_pts_time=180.180000
--
pkt_pts_time=180.663817
key_frame=1
pkt_pts_time=180.680500
--
pkt_pts_time=181.164317
key_frame=1
pkt_pts_time=181.181000
--
pkt_pts_time=181.664817
key_frame=1
pkt_pts_time=181.681500
--
pkt_pts_time=182.165317
key_frame=1
pkt_pts_time=182.182000
--
pkt_pts_time=182.665817
key_frame=1
pkt_pts_time=182.682500
--
pkt_pts_time=183.166317
key_frame=1
pkt_pts_time=183.183000
--
pkt_pts_time=183.666817
key_frame=1
pkt_pts_time=183.683500
--
pkt_pts_time=184.167317
key_frame=1
pkt_pts_time=184.184000
--
pkt_pts_time=184.667817
key_frame=1
pkt_pts_time=184.684500
--
pkt_pts_time=185.168317
key_frame=1
pkt_pts_time=185.185000
--
pkt_pts_time=185.668817
key_frame=1
pkt_pts_time=185.685500
--
pkt_pts_time=186.169317
key_frame=1
pkt_pts_time=186.186000
--
pkt_pts_time=186.669817
key_frame=1
pkt_pts_time=186.686500
--
pkt_pts_time=187.170317
key_frame=1
pkt_pts_time=187.187000
--
pkt_pts_time=187.670817
key_frame=1
pkt_pts_time=187.687500
--
pkt_pts_time=188.171317
key_frame=1
pkt_pts_time=188.188000
--
pkt_pts_time=188.671817
key_frame=1
pkt_pts_time=188.688500
--
pkt_pts_time=189.172317
key_frame=1
pkt_pts_time=189.189000
--
pkt_pts_time=189.672817
key_frame=1
pkt_pts_time=189.689500
--
pkt_pts_time=190.173317
key_frame=1
pkt_pts_time=190.190000
--
pkt_pts_time=190.673817
key_frame=1
pkt_pts_time=190.690500
--
pkt_pts_time=191.174317
key_frame=1
pkt_pts_time=191.191000
--
pkt_pts_time=191.674817
key_frame=1
pkt_pts_time=191.691500
--
pkt_pts_time=192.175317
key_frame=1
pkt_pts_time=192.192000
--
pkt_pts_time=192.675817
key_frame=1
pkt_pts_time=192.692500
--
pkt_pts_time=193.176317
key_frame=1
pkt_pts_time=193.193000
--
pkt_pts_time=193.676817
key_frame=1
pkt_pts_time=193.693500
--
pkt_pts_time=194.177317
key_frame=1
pkt_pts_time=194.194000
--
pkt_pts_time=194.677817
key_frame=1
pkt_pts_time=194.694500
--
pkt_pts_time=195.178317
key_frame=1
pkt_pts_time=195.195000
--
pkt_pts_time=195.678817
key_frame=1
pkt_pts_time=195.695500
--
pkt_pts_time=196.179317
key_frame=1
pkt_pts_time=196.196000
--
pkt_pts_time=196.679817
key_frame=1
pkt_pts_time=196.696500
--
pkt_pts_time=197.180317
key_frame=1
pkt_pts_time=197.197000
--
pkt_pts_time=197.680817
key_frame=1
pkt_pts_time=197.697500
--
pkt_pts_time=198.181317
key_frame=1
pkt_pts_time=198.198000
--
pkt_pts_time=198.681817
key_frame=1
pkt_pts_time=198.698500
--
pkt_pts_time=199.182317
key_frame=1
pkt_pts_time=199.199000
--
pkt_pts_time=199.682817
key_frame=1
pkt_pts_time=199.699500
--
pkt_pts_time=200.183317
key_frame=1
pkt_pts_time=200.200000
--
pkt_pts_time=200.683817
key_frame=1
pkt_pts_time=200.700500
--
pkt_pts_time=201.184317
key_frame=1
pkt_pts_time=201.201000
--
pkt_pts_time=201.684817
key_frame=1
pkt_pts_time=201.701500
--
pkt_pts_time=202.185317
key_frame=1
pkt_pts_time=202.202000
--
pkt_pts_time=202.685817
key_frame=1
pkt_pts_time=202.702500
--
pkt_pts_time=203.186317
key_frame=1
pkt_pts_time=203.203000
--
pkt_pts_time=203.686817
key_frame=1
pkt_pts_time=203.703500
--
pkt_pts_time=204.187317
key_frame=1
pkt_pts_time=204.204000
--
pkt_pts_time=204.687817
key_frame=1
pkt_pts_time=204.704500
--
pkt_pts_time=205.188317
key_frame=1
pkt_pts_time=205.205000
--
pkt_pts_time=205.688817
key_frame=1
pkt_pts_time=205.705500
--
pkt_pts_time=206.189317
key_frame=1
pkt_pts_time=206.206000
--
pkt_pts_time=206.689817
key_frame=1
pkt_pts_time=206.706500
--
pkt_pts_time=207.190317
key_frame=1
pkt_pts_time=207.207000
--
pkt_pts_time=207.690817
key_frame=1
pkt_pts_time=207.707500
--
pkt_pts_time=208.191317
key_frame=1
pkt_pts_time=208.208000
--
pkt_pts_time=208.691817
key_frame=1
pkt_pts_time=208.708500
--
pkt_pts_time=209.192317
key_frame=1
pkt_pts_time=209.209000
--
pkt_pts_time=209.692817
key_frame=1
pkt_pts_time=209.709500
--
pkt_pts_time=210.193317
key_frame=1
pkt_pts_time=210.210000
--
pkt_pts_time=210.693817
key_frame=1
pkt_pts_time=210.710500
--
pkt_pts_time=211.194317
key_frame=1
pkt_pts_time=211.211000
--
pkt_pts_time=211.694817
key_frame=1
pkt_pts_time=211.711500
--
pkt_pts_time=212.195317
key_frame=1
pkt_pts_time=212.212000
--
pkt_pts_time=212.695817
key_frame=1
pkt_pts_time=212.712500
--
pkt_pts_time=213.196317
key_frame=1
pkt_pts_time=213.213000
--
pkt_pts_time=213.696817
key_frame=1
pkt_pts_time=213.713500
--
pkt_pts_time=214.197317
key_frame=1
pkt_pts_time=214.214000
--
pkt_pts_time=214.697817
key_frame=1
pkt_pts_time=214.714500
--
pkt_pts_time=215.198317
key_frame=1
pkt_pts_time=215.215000
--
pkt_pts_time=215.698817
key_frame=1
pkt_pts_time=215.715500
--
pkt_pts_time=216.199317
key_frame=1
pkt_pts_time=216.216000
--
pkt_pts_time=216.699817
key_frame=1
pkt_pts_time=216.716500
--
pkt_pts_time=217.200317
key_frame=1
pkt_pts_time=217.217000
--
pkt_pts_time=217.700817
key_frame=1
pkt_pts_time=217.717500
--
pkt_pts_time=218.201317
key_frame=1
pkt_pts_time=218.218000
--
pkt_pts_time=218.701817
key_frame=1
pkt_pts_time=218.718500
--
pkt_pts_time=219.202317
key_frame=1
pkt_pts_time=219.219000
--
pkt_pts_time=219.702817
key_frame=1
pkt_pts_time=219.719500
--
pkt_pts_time=220.203317
key_frame=1
pkt_pts_time=220.220000
--
pkt_pts_time=220.703817
key_frame=1
pkt_pts_time=220.720500
--
pkt_pts_time=221.204317
key_frame=1
pkt_pts_time=221.221000
--
pkt_pts_time=221.704817
key_frame=1
pkt_pts_time=221.721500
--
pkt_pts_time=222.205317
key_frame=1
pkt_pts_time=222.222000
--
pkt_pts_time=222.705817
key_frame=1
pkt_pts_time=222.722500
--
pkt_pts_time=223.206317
key_frame=1
pkt_pts_time=223.223000
--
pkt_pts_time=223.706817
key_frame=1
pkt_pts_time=223.723500
--
pkt_pts_time=224.207317
key_frame=1
pkt_pts_time=224.224000
--
pkt_pts_time=224.707817
key_frame=1
pkt_pts_time=224.724500
--
pkt_pts_time=225.208317
key_frame=1
pkt_pts_time=225.225000
--
pkt_pts_time=225.708817
key_frame=1
pkt_pts_time=225.725500
--
pkt_pts_time=226.209317
key_frame=1
pkt_pts_time=226.226000
--
pkt_pts_time=226.709817
key_frame=1
pkt_pts_time=226.726500
--
pkt_pts_time=227.210317
key_frame=1
pkt_pts_time=227.227000
--
pkt_pts_time=227.710817
key_frame=1
pkt_pts_time=227.727500
--
pkt_pts_time=228.211317
key_frame=1
pkt_pts_time=228.228000
--
pkt_pts_time=228.711817
key_frame=1
pkt_pts_time=228.728500
--
pkt_pts_time=229.212317
key_frame=1
pkt_pts_time=229.229000
--
pkt_pts_time=229.712817
key_frame=1
pkt_pts_time=229.729500
--
pkt_pts_time=230.213317
key_frame=1
pkt_pts_time=230.230000
--
pkt_pts_time=230.713817
key_frame=1
pkt_pts_time=230.730500
--
pkt_pts_time=231.214317
key_frame=1
pkt_pts_time=231.231000
--
pkt_pts_time=231.714817
key_frame=1
pkt_pts_time=231.731500
--
pkt_pts_time=232.215317
key_frame=1
pkt_pts_time=232.232000
--
pkt_pts_time=232.715817
key_frame=1
pkt_pts_time=232.732500
--
pkt_pts_time=233.216317
key_frame=1
pkt_pts_time=233.233000
--
pkt_pts_time=233.716817
key_frame=1
pkt_pts_time=233.733500
--
pkt_pts_time=234.217317
key_frame=1
pkt_pts_time=234.234000
--
pkt_pts_time=234.717817
key_frame=1
pkt_pts_time=234.734500
--
pkt_pts_time=235.218317
key_frame=1
pkt_pts_time=235.235000
--
pkt_pts_time=235.718817
key_frame=1
pkt_pts_time=235.735500
--
pkt_pts_time=236.219317
key_frame=1
pkt_pts_time=236.236000
--
pkt_pts_time=236.719817
key_frame=1
pkt_pts_time=236.736500
--
pkt_pts_time=237.220317
key_frame=1
pkt_pts_time=237.237000
--
pkt_pts_time=237.720817
key_frame=1
pkt_pts_time=237.737500
--
pkt_pts_time=238.221317
key_frame=1
pkt_pts_time=238.238000
--
pkt_pts_time=238.721817
key_frame=1
pkt_pts_time=238.738500
--
pkt_pts_time=239.222317
key_frame=1
pkt_pts_time=239.239000
--
pkt_pts_time=239.722817
key_frame=1
pkt_pts_time=239.739500
--
pkt_pts_time=240.223317
key_frame=1
pkt_pts_time=240.240000
--
pkt_pts_time=240.723817
key_frame=1
pkt_pts_time=240.740500
--
pkt_pts_time=241.224317
key_frame=1
pkt_pts_time=241.241000
--
pkt_pts_time=241.724817
key_frame=1
pkt_pts_time=241.741500
--
pkt_pts_time=242.225317
key_frame=1
pkt_pts_time=242.242000
--
pkt_pts_time=242.725817
key_frame=1
pkt_pts_time=242.742500
--
pkt_pts_time=243.226317
key_frame=1
pkt_pts_time=243.243000
--
pkt_pts_time=243.726817
key_frame=1
pkt_pts_time=243.743500
--
pkt_pts_time=244.227317
key_frame=1
pkt_pts_time=244.244000
--
pkt_pts_time=244.727817
key_frame=1
pkt_pts_time=244.744500
--
pkt_pts_time=245.228317
key_frame=1
pkt_pts_time=245.245000
--
pkt_pts_time=245.728817
key_frame=1
pkt_pts_time=245.745500
--
pkt_pts_time=246.229317
key_frame=1
pkt_pts_time=246.246000
--
pkt_pts_time=246.729817
key_frame=1
pkt_pts_time=246.746500
--
pkt_pts_time=247.230317
key_frame=1
pkt_pts_time=247.247000
--
pkt_pts_time=247.730817
key_frame=1
pkt_pts_time=247.747500
--
pkt_pts_time=248.231317
key_frame=1
pkt_pts_time=248.248000
--
pkt_pts_time=248.731817
key_frame=1
pkt_pts_time=248.748500
--
pkt_pts_time=249.232317
key_frame=1
pkt_pts_time=249.249000
--
pkt_pts_time=249.732817
key_frame=1
pkt_pts_time=249.749500
--
pkt_pts_time=250.233317
key_frame=1
pkt_pts_time=250.250000
--
pkt_pts_time=250.733817
key_frame=1
pkt_pts_time=250.750500
--
pkt_pts_time=251.234317
key_frame=1
pkt_pts_time=251.251000
--
pkt_pts_time=251.734817
key_frame=1
pkt_pts_time=251.751500
--
pkt_pts_time=252.235317
key_frame=1
pkt_pts_time=252.252000
--
pkt_pts_time=252.735817
key_frame=1
pkt_pts_time=252.752500
--
pkt_pts_time=253.236317
key_frame=1
pkt_pts_time=253.253000
--
pkt_pts_time=253.736817
key_frame=1
pkt_pts_time=253.753500
--
pkt_pts_time=254.237317
key_frame=1
pkt_pts_time=254.254000
--
pkt_pts_time=254.737817
key_frame=1
pkt_pts_time=254.754500
--
pkt_pts_time=255.238317
key_frame=1
pkt_pts_time=255.255000
--
pkt_pts_time=255.738817
key_frame=1
pkt_pts_time=255.755500
--
pkt_pts_time=256.239317
key_frame=1
pkt_pts_time=256.256000
--
pkt_pts_time=256.739817
key_frame=1
pkt_pts_time=256.756500
--
pkt_pts_time=257.240317
key_frame=1
pkt_pts_time=257.257000
--
pkt_pts_time=257.740817
key_frame=1
pkt_pts_time=257.757500
--
pkt_pts_time=258.241317
key_frame=1
pkt_pts_time=258.258000
--
pkt_pts_time=258.741817
key_frame=1
pkt_pts_time=258.758500
--
pkt_pts_time=259.242317
key_frame=1
pkt_pts_time=259.259000
--
pkt_pts_time=259.742817
key_frame=1
pkt_pts_time=259.759500
--
pkt_pts_time=260.243317
key_frame=1
pkt_pts_time=260.260000
--
pkt_pts_time=260.743817
key_frame=1
pkt_pts_time=260.760500
--
pkt_pts_time=261.244317
key_frame=1
pkt_pts_time=261.261000
--
pkt_pts_time=261.744817
key_frame=1
pkt_pts_time=261.761500
--
pkt_pts_time=262.245317
key_frame=1
pkt_pts_time=262.262000
--
pkt_pts_time=262.745817
key_frame=1
pkt_pts_time=262.762500
--
pkt_pts_time=263.246317
key_frame=1
pkt_pts_time=263.263000
--
pkt_pts_time=263.746817
key_frame=1
pkt_pts_time=263.763500
--
pkt_pts_time=264.247317
key_frame=1
pkt_pts_time=264.264000
--
pkt_pts_time=264.747817
key_frame=1
pkt_pts_time=264.764500
--
pkt_pts_time=265.248317
key_frame=1
pkt_pts_time=265.265000
--
pkt_pts_time=265.748817
key_frame=1
pkt_pts_time=265.765500
--
pkt_pts_time=266.249317
key_frame=1
pkt_pts_time=266.266000
--
pkt_pts_time=266.749817
key_frame=1
pkt_pts_time=266.766500
--
pkt_pts_time=267.250317
key_frame=1
pkt_pts_time=267.267000
--
pkt_pts_time=267.750817
key_frame=1
pkt_pts_time=267.767500
--
pkt_pts_time=268.251317
key_frame=1
pkt_pts_time=268.268000
--
pkt_pts_time=268.751817
key_frame=1
pkt_pts_time=268.768500
--
pkt_pts_time=269.252317
key_frame=1
pkt_pts_time=269.269000
--
pkt_pts_time=269.752817
key_frame=1
pkt_pts_time=269.769500
--
pkt_pts_time=270.253317
key_frame=1
pkt_pts_time=270.270000
--
pkt_pts_time=270.753817
key_frame=1
pkt_pts_time=270.770500
--
pkt_pts_time=271.254317
key_frame=1
pkt_pts_time=271.271000
--
pkt_pts_time=271.754817
key_frame=1
pkt_pts_time=271.771500
--
pkt_pts_time=272.255317
key_frame=1
pkt_pts_time=272.272000
--
pkt_pts_time=272.755817
key_frame=1
pkt_pts_time=272.772500
--
pkt_pts_time=273.256317
key_frame=1
pkt_pts_time=273.273000
--
pkt_pts_time=273.756817
key_frame=1
pkt_pts_time=273.773500
--
pkt_pts_time=274.257317
key_frame=1
pkt_pts_time=274.274000
--
pkt_pts_time=274.757817
key_frame=1
pkt_pts_time=274.774500
--
pkt_pts_time=275.258317
key_frame=1
pkt_pts_time=275.275000
--
pkt_pts_time=275.758817
key_frame=1
pkt_pts_time=275.775500
--
pkt_pts_time=276.259317
key_frame=1
pkt_pts_time=276.276000
--
pkt_pts_time=276.759817
key_frame=1
pkt_pts_time=276.776500
--
pkt_pts_time=277.260317
key_frame=1
pkt_pts_time=277.277000
--
pkt_pts_time=277.760817
key_frame=1
pkt_pts_time=277.777500
--
pkt_pts_time=278.261317
key_frame=1
pkt_pts_time=278.278000
--
pkt_pts_time=278.761817
key_frame=1
pkt_pts_time=278.778500
--
pkt_pts_time=279.262317
key_frame=1
pkt_pts_time=279.279000
--
pkt_pts_time=279.762817
key_frame=1
pkt_pts_time=279.779500
--
pkt_pts_time=280.263317
key_frame=1
pkt_pts_time=280.280000
--
pkt_pts_time=280.763817
key_frame=1
pkt_pts_time=280.780500
--
pkt_pts_time=281.264317
key_frame=1
pkt_pts_time=281.281000
--
pkt_pts_time=281.764817
key_frame=1
pkt_pts_time=281.781500
--
pkt_pts_time=282.265317
key_frame=1
pkt_pts_time=282.282000
--
pkt_pts_time=282.765817
key_frame=1
pkt_pts_time=282.782500
--
pkt_pts_time=283.266317
key_frame=1
pkt_pts_time=283.283000
--
pkt_pts_time=283.766817
key_frame=1
pkt_pts_time=283.783500
--
pkt_pts_time=284.267317
key_frame=1
pkt_pts_time=284.284000
--
pkt_pts_time=284.767817
key_frame=1
pkt_pts_time=284.784500
--
pkt_pts_time=285.268317
key_frame=1
pkt_pts_time=285.285000
--
pkt_pts_time=285.768817
key_frame=1
pkt_pts_time=285.785500
--
pkt_pts_time=286.269317
key_frame=1
pkt_pts_time=286.286000
--
pkt_pts_time=286.769817
key_frame=1
pkt_pts_time=286.786500
--
pkt_pts_time=287.270317
key_frame=1
pkt_pts_time=287.287000
--
pkt_pts_time=287.770817
key_frame=1
pkt_pts_time=287.787500
--
pkt_pts_time=288.271317
key_frame=1
pkt_pts_time=288.288000
--
pkt_pts_time=288.771817
key_frame=1
pkt_pts_time=288.788500
--
pkt_pts_time=289.272317
key_frame=1
pkt_pts_time=289.289000
--
pkt_pts_time=289.772817
key_frame=1
pkt_pts_time=289.789500
--
pkt_pts_time=290.273317
key_frame=1
pkt_pts_time=290.290000
--
pkt_pts_time=290.773817
key_frame=1
pkt_pts_time=290.790500
--
pkt_pts_time=291.274317
key_frame=1
pkt_pts_time=291.291000
--
pkt_pts_time=291.774817
key_frame=1
pkt_pts_time=291.791500
--
pkt_pts_time=292.275317
key_frame=1
pkt_pts_time=292.292000
--
pkt_pts_time=292.775817
key_frame=1
pkt_pts_time=292.792500
--
pkt_pts_time=293.276317
key_frame=1
pkt_pts_time=293.293000
--
pkt_pts_time=293.776817
key_frame=1
pkt_pts_time=293.793500
--
pkt_pts_time=294.277317
key_frame=1
pkt_pts_time=294.294000
--
pkt_pts_time=294.777817
key_frame=1
pkt_pts_time=294.794500
--
pkt_pts_time=295.278317
key_frame=1
pkt_pts_time=295.295000
--
pkt_pts_time=295.778817
key_frame=1
pkt_pts_time=295.795500
--
pkt_pts_time=296.279317
key_frame=1
pkt_pts_time=296.296000
--
pkt_pts_time=296.779817
key_frame=1
pkt_pts_time=296.796500
--
pkt_pts_time=297.280317
key_frame=1
pkt_pts_time=297.297000
--
pkt_pts_time=297.780817
key_frame=1
pkt_pts_time=297.797500
--
pkt_pts_time=298.281317
key_frame=1
pkt_pts_time=298.298000
--
pkt_pts_time=298.781817
key_frame=1
pkt_pts_time=298.798500
--
pkt_pts_time=299.282317
key_frame=1
pkt_pts_time=299.299000
--
pkt_pts_time=299.782817
key_frame=1
pkt_pts_time=299.799500
--
pkt_pts_time=300.283317
key_frame=1
pkt_pts_time=300.300000
--
pkt_pts_time=300.783817
key_frame=1
pkt_pts_time=300.800500
--
pkt_pts_time=301.284317
key_frame=1
pkt_pts_time=301.301000
--
pkt_pts_time=301.784817
key_frame=1
pkt_pts_time=301.801500
--
pkt_pts_time=302.285317
key_frame=1
pkt_pts_time=302.302000
--
pkt_pts_time=302.785817
key_frame=1
pkt_pts_time=302.802500
--
pkt_pts_time=303.286317
key_frame=1
pkt_pts_time=303.303000
--
pkt_pts_time=303.786817
key_frame=1
pkt_pts_time=303.803500
--
pkt_pts_time=304.287317
key_frame=1
pkt_pts_time=304.304000
--
pkt_pts_time=304.787817
key_frame=1
pkt_pts_time=304.804500
--
pkt_pts_time=305.288317
key_frame=1
pkt_pts_time=305.305000
--
pkt_pts_time=305.788817
key_frame=1
pkt_pts_time=305.805500
--
pkt_pts_time=306.289317
key_frame=1
pkt_pts_time=306.306000
--
pkt_pts_time=306.789817
key_frame=1
pkt_pts_time=306.806500
--
pkt_pts_time=307.290317
key_frame=1
pkt_pts_time=307.307000
--
pkt_pts_time=307.790817
key_frame=1
pkt_pts_time=307.807500
--
pkt_pts_time=308.291317
key_frame=1
pkt_pts_time=308.308000
--
pkt_pts_time=308.791817
key_frame=1
pkt_pts_time=308.808500
--
pkt_pts_time=309.292317
key_frame=1
pkt_pts_time=309.309000
--
pkt_pts_time=309.792817
key_frame=1
pkt_pts_time=309.809500
--
pkt_pts_time=310.293317
key_frame=1
pkt_pts_time=310.310000
--
pkt_pts_time=310.793817
key_frame=1
pkt_pts_time=310.810500
--
pkt_pts_time=311.294317
key_frame=1
pkt_pts_time=311.311000
--
pkt_pts_time=311.794817
key_frame=1
pkt_pts_time=311.811500
--
pkt_pts_time=312.295317
key_frame=1
pkt_pts_time=312.312000
--
pkt_pts_time=312.795817
key_frame=1
pkt_pts_time=312.812500
--
pkt_pts_time=313.296317
key_frame=1
pkt_pts_time=313.313000
--
pkt_pts_time=313.796817
key_frame=1
pkt_pts_time=313.813500
--
pkt_pts_time=314.297317
key_frame=1
pkt_pts_time=314.314000
--
pkt_pts_time=314.797817
key_frame=1
pkt_pts_time=314.814500
--
pkt_pts_time=315.298317
key_frame=1
pkt_pts_time=315.315000
--
pkt_pts_time=315.798817
key_frame=1
pkt_pts_time=315.815500
--
pkt_pts_time=316.299317
key_frame=1
pkt_pts_time=316.316000
--
pkt_pts_time=316.799817
key_frame=1
pkt_pts_time=316.816500
--
pkt_pts_time=317.300317
key_frame=1
pkt_pts_time=317.317000
--
pkt_pts_time=317.800817
key_frame=1
pkt_pts_time=317.817500
--
pkt_pts_time=318.301317
key_frame=1
pkt_pts_time=318.318000
--
pkt_pts_time=318.801817
key_frame=1
pkt_pts_time=318.818500
--
pkt_pts_time=319.302317
key_frame=1
pkt_pts_time=319.319000
--
pkt_pts_time=319.802817
key_frame=1
pkt_pts_time=319.819500
--
pkt_pts_time=320.303317
key_frame=1
pkt_pts_time=320.320000
--
pkt_pts_time=320.803817
key_frame=1
pkt_pts_time=320.820500
--
pkt_pts_time=321.304317
key_frame=1
pkt_pts_time=321.321000
--
pkt_pts_time=321.804817
key_frame=1
pkt_pts_time=321.821500
--
pkt_pts_time=322.305317
key_frame=1
pkt_pts_time=322.322000
--
pkt_pts_time=322.805817
key_frame=1
pkt_pts_time=322.822500
--
pkt_pts_time=323.306317
key_frame=1
pkt_pts_time=323.323000
--
pkt_pts_time=323.806817
key_frame=1
pkt_pts_time=323.823500
--
pkt_pts_time=324.307317
key_frame=1
pkt_pts_time=324.324000
--
pkt_pts_time=324.807817
key_frame=1
pkt_pts_time=324.824500
--
pkt_pts_time=325.308317
key_frame=1
pkt_pts_time=325.325000
--
pkt_pts_time=325.808817
key_frame=1
pkt_pts_time=325.825500
--
pkt_pts_time=326.309317
key_frame=1
pkt_pts_time=326.326000
--
pkt_pts_time=326.809817
key_frame=1
pkt_pts_time=326.826500
--
pkt_pts_time=327.310317
key_frame=1
pkt_pts_time=327.327000
--
pkt_pts_time=327.810817
key_frame=1
pkt_pts_time=327.827500
--
pkt_pts_time=328.311317
key_frame=1
pkt_pts_time=328.328000
--
pkt_pts_time=328.811817
key_frame=1
pkt_pts_time=328.828500
--
pkt_pts_time=329.312317
key_frame=1
pkt_pts_time=329.329000
--
pkt_pts_time=329.812817
key_frame=1
pkt_pts_time=329.829500
--
pkt_pts_time=330.313317
key_frame=1
pkt_pts_time=330.330000
--
pkt_pts_time=330.813817
key_frame=1
pkt_pts_time=330.830500
--
pkt_pts_time=331.314317
key_frame=1
pkt_pts_time=331.331000
--
pkt_pts_time=331.814817
key_frame=1
pkt_pts_time=331.831500
--
pkt_pts_time=332.315317
key_frame=1
pkt_pts_time=332.332000
--
pkt_pts_time=332.815817
key_frame=1
pkt_pts_time=332.832500
--
pkt_pts_time=333.316317
key_frame=1
pkt_pts_time=333.333000
--
pkt_pts_time=333.816817
key_frame=1
pkt_pts_time=333.833500
--
pkt_pts_time=334.317317
key_frame=1
pkt_pts_time=334.334000
--
pkt_pts_time=334.817817
key_frame=1
pkt_pts_time=334.834500
--
pkt_pts_time=335.318317
key_frame=1
pkt_pts_time=335.335000
--
pkt_pts_time=335.818817
key_frame=1
pkt_pts_time=335.835500
--
pkt_pts_time=336.319317
key_frame=1
pkt_pts_time=336.336000
--
pkt_pts_time=336.819817
key_frame=1
pkt_pts_time=336.836500
--
pkt_pts_time=337.320317
key_frame=1
pkt_pts_time=337.337000
--
pkt_pts_time=337.820817
key_frame=1
pkt_pts_time=337.837500
--
pkt_pts_time=338.321317
key_frame=1
pkt_pts_time=338.338000
--
pkt_pts_time=338.821817
key_frame=1
pkt_pts_time=338.838500
--
pkt_pts_time=339.322317
key_frame=1
pkt_pts_time=339.339000
--
pkt_pts_time=339.822817
key_frame=1
pkt_pts_time=339.839500
--
pkt_pts_time=340.323317
key_frame=1
pkt_pts_time=340.340000
--
pkt_pts_time=340.823817
key_frame=1
pkt_pts_time=340.840500
--
pkt_pts_time=341.324317
key_frame=1
pkt_pts_time=341.341000
--
pkt_pts_time=341.824817
key_frame=1
pkt_pts_time=341.841500
--
pkt_pts_time=342.325317
key_frame=1
pkt_pts_time=342.342000
--
pkt_pts_time=342.825817
key_frame=1
pkt_pts_time=342.842500
--
pkt_pts_time=343.326317
key_frame=1
pkt_pts_time=343.343000
--
pkt_pts_time=343.826817
key_frame=1
pkt_pts_time=343.843500
--
pkt_pts_time=344.327317
key_frame=1
pkt_pts_time=344.344000
--
pkt_pts_time=344.827817
key_frame=1
pkt_pts_time=344.844500
--
pkt_pts_time=345.328317
key_frame=1
pkt_pts_time=345.345000
--
pkt_pts_time=345.828817
key_frame=1
pkt_pts_time=345.845500
--
pkt_pts_time=346.329317
key_frame=1
pkt_pts_time=346.346000
--
pkt_pts_time=346.829817
key_frame=1
pkt_pts_time=346.846500
--
pkt_pts_time=347.330317
key_frame=1
pkt_pts_time=347.347000
--
pkt_pts_time=347.830817
key_frame=1
pkt_pts_time=347.847500
--
pkt_pts_time=348.331317
key_frame=1
pkt_pts_time=348.348000
--
pkt_pts_time=348.831817
key_frame=1
pkt_pts_time=348.848500
--
pkt_pts_time=349.332317
key_frame=1
pkt_pts_time=349.349000
--
pkt_pts_time=349.832817
key_frame=1
pkt_pts_time=349.849500
--
pkt_pts_time=350.333317
key_frame=1
pkt_pts_time=350.350000
--
pkt_pts_time=350.833817
key_frame=1
pkt_pts_time=350.850500
--
pkt_pts_time=351.334317
key_frame=1
pkt_pts_time=351.351000
--
pkt_pts_time=351.834817
key_frame=1
pkt_pts_time=351.851500
--
pkt_pts_time=352.335317
key_frame=1
pkt_pts_time=352.352000
--
pkt_pts_time=352.835817
key_frame=1
pkt_pts_time=352.852500
--
pkt_pts_time=353.336317
key_frame=1
pkt_pts_time=353.353000
--
pkt_pts_time=353.836817
key_frame=1
pkt_pts_time=353.853500
--
pkt_pts_time=354.337317
key_frame=1
pkt_pts_time=354.354000
--
pkt_pts_time=354.837817
key_frame=1
pkt_pts_time=354.854500
